<?xml version="1.0" encoding="UTF-8"?>
<svg xmlns="http://www.w3.org/2000/svg" viewBox="0 0 100 100">
  <g transform="translate(5,0)" stroke="none" fill="#1DC7DA">
    <path d="M49.831 14.185c-11.014 0-19.939 7.899-19.939 17.645s2.393 43.563 20.334 43.563c17.546 0 19.539-33.818 19.539-43.563s-8.924-17.645-19.934-17.645zm-.128 24.352c-8.658 0-15.674-4.655-15.674-10.398 0-5.739 7.016-10.396 15.674-10.396S65.381 22.4 65.381 28.139c0 5.743-7.021 10.398-15.678 10.398z"/>
    <path d="M38.169 10.956h1.392v6.886h-1.392z"/>
    <path d="M40.891 10.042a2.04 2.04 0 11-4.08-.002 2.04 2.04 0 014.08.002zM31.988 33.898c-2.725 0-4.955 2.034-5.31 4.662-.332.294-.656.604-.963.947-3.261 3.657-4.672 9.706-4.025 17.112-2.639 1.149-4.781 6.55-.225 9.728-.37-1.668.414-5.089 2.825-5.459 1.671-.466 4.36.927 4.36 4.265 1.998-2.003 2.627-8.841-1.412-8.95-.475-5.302.271-9.674 2.079-12.281.79.455 1.694.735 2.67.735a5.38 5.38 0 00-.001-10.759zM79.642 58.062c-.135-10.955-3.369-17.285-7.252-20.211-.629-2.273-2.688-3.952-5.158-3.952a5.38 5.38 0 100 10.758c1.179 0 2.26-.391 3.146-1.035 1.818 2.248 3.479 6.458 3.684 13.647-4.865-.204-5.679 7.021-1.008 9.547-.392-3.283.854-5.373 2.803-5.649 2.686.092 2.591 4.517 2.411 5.935 4.773-2.862 4.669-7.662 1.374-9.04zM37.37 28.908c2.084-1.392 6.401-1.89 8.813-.808.504.226.818.069.695-.469-1.414-6.17-9.97-5.037-10.282.934-.029.551.315.649.774.343zM52.7 28.204c2.279-1.041 6.619-.842 8.826.612.461.304.796.2.761-.351-.407-6.319-9.036-6.565-10.297-.723-.116.54.207.691.71.462z"/>
    <ellipse cx="50" cy="89.5" rx="14" ry="2.5"/>
  </g>
</svg>
