<svg data-v-fde0c5aa="" xmlns="http://www.w3.org/2000/svg" viewBox="0 0 300 300" class="iconLeft"><!----><defs data-v-fde0c5aa=""><!----></defs><rect data-v-fde0c5aa="" fill="#231B6E" x="0" y="0" width="300px" height="300px" class="logo-background-square"></rect><defs data-v-fde0c5aa=""><!----></defs><g data-v-fde0c5aa="" id="c036a8e8-9c78-49e8-a049-3cb486950de4" fill="#ffffff" transform="matrix(3.7128601173421836,0,0,3.7128601173421836,96.52276781182715,116.36148754933136)"><path d="M5.22 14.52C7.73 14.52 8.57 13.33 8.57 10.46L8.57 5.08L9.69 5.08L9.69 4.58L6.85 4.58L6.85 5.08L7.97 5.08L7.97 10.74C7.97 12.94 7.27 13.90 5.26 13.90C3.28 13.90 2.63 12.94 2.63 10.74L2.63 5.08L3.75 5.08L3.75 4.58L0.60 4.58L0.60 5.08L1.72 5.08L1.72 10.58C1.72 13.45 2.67 14.52 5.22 14.52ZM10.93 14.35L14.01 14.35L14.01 13.85L12.91 13.85L12.91 9.21C12.91 8.15 13.85 7.62 14.80 7.62C16.04 7.62 16.66 8.33 16.66 9.80L16.66 13.85L15.55 13.85L15.55 14.35L18.63 14.35L18.63 13.85L17.53 13.85L17.53 9.72C17.53 7.92 16.80 7.01 15.09 7.01C13.87 7.01 13.17 7.67 12.94 8.30L12.88 8.30L12.88 7.04L10.93 7.36L10.93 7.74L12.04 7.90L12.04 13.85L10.93 13.85ZM21.28 5.29C21.69 5.29 21.91 5.03 21.91 4.69L21.91 4.63C21.91 4.30 21.69 4.03 21.28 4.03C20.87 4.03 20.65 4.30 20.65 4.63L20.65 4.69C20.65 5.03 20.87 5.29 21.28 5.29ZM19.74 14.35L22.82 14.35L22.82 13.85L21.71 13.85L21.71 7.04L19.74 7.36L19.74 7.74L20.85 7.90L20.85 13.85L19.74 13.85ZM27.85 14.52C29.68 14.52 30.84 13.22 30.84 10.77C30.84 8.32 29.68 7.01 27.85 7.01C26.66 7.01 25.94 7.62 25.63 8.30L25.58 8.30L25.58 3.60L23.60 3.92L23.60 4.30L24.71 4.45L24.71 14.35L25.10 14.35L25.55 13.23L25.61 13.23C25.91 13.93 26.66 14.52 27.85 14.52ZM27.62 13.92C26.59 13.92 25.58 13.30 25.58 12.31L25.58 9.23C25.58 8.23 26.59 7.62 27.62 7.62C29.06 7.62 29.89 8.65 29.89 10.26L29.89 11.27C29.89 12.88 29.06 13.92 27.62 13.92ZM35.66 13.97C34.15 13.97 33.40 12.91 33.40 11.38L33.40 10.15C33.40 8.62 34.15 7.56 35.66 7.56C37.17 7.56 37.91 8.62 37.91 10.15L37.91 11.38C37.91 12.91 37.17 13.97 35.66 13.97ZM35.66 14.52C37.63 14.52 38.89 13.12 38.89 10.77C38.89 8.41 37.63 7.01 35.66 7.01C33.68 7.01 32.42 8.41 32.42 10.77C32.42 13.12 33.68 14.52 35.66 14.52ZM42.29 14.41C42.85 14.41 43.68 14.32 44.03 14.20L44.03 13.80L42.10 13.80L42.10 7.73L44.03 7.73L44.03 7.18L42.10 7.18L42.10 5.25L41.59 5.25L41.37 6.58C41.29 7.00 41.15 7.18 40.46 7.18L40.26 7.18L40.26 7.73L41.23 7.73L41.23 13.40C41.23 14.14 41.48 14.41 42.29 14.41Z"></path></g><defs data-v-fde0c5aa=""><!----></defs><g data-v-fde0c5aa="" id="2ce484dc-8018-43b9-89ed-171ceea8ec90" stroke="none" fill="#1DC7DA" transform="matrix(0.7240163424475772,0,0,0.7240163424475772,26.38161341359013,113.79882106830695)"><path d="M49.831 14.185c-11.014 0-19.939 7.899-19.939 17.645s2.393 43.563 20.334 43.563c17.546 0 19.539-33.818 19.539-43.563s-8.924-17.645-19.934-17.645zm-.128 24.352c-8.658 0-15.674-4.655-15.674-10.398 0-5.739 7.016-10.396 15.674-10.396S65.381 22.4 65.381 28.139c0 5.743-7.021 10.398-15.678 10.398z"></path><path d="M38.169 10.956h1.392v6.886h-1.392z"></path><path d="M40.891 10.042a2.04 2.04 0 11-4.08-.002 2.04 2.04 0 014.08.002zM31.988 33.898c-2.725 0-4.955 2.034-5.31 4.662-.332.294-.656.604-.963.947-3.261 3.657-4.672 9.706-4.025 17.112-2.639 1.149-4.781 6.55-.225 9.728-.37-1.668.414-5.089 2.825-5.459 1.671-.466 4.36.927 4.36 4.265 1.998-2.003 2.627-8.841-1.412-8.95-.475-5.302.271-9.674 2.079-12.281.79.455 1.694.735 2.67.735a5.38 5.38 0 00.001-10.759zM79.642 58.062c-.135-10.955-3.369-17.285-7.252-20.211-.629-2.273-2.688-3.952-5.158-3.952a5.38 5.38 0 100 10.758c1.179 0 2.26-.391 3.146-1.035 1.818 2.248 3.479 6.458 3.684 13.647-4.865-.204-5.679 7.021-1.008 9.547-.392-3.283.854-5.373 2.803-5.649 2.686.092 2.591 4.517 2.411 5.935 4.773-2.862 4.669-7.662 1.374-9.04zM37.37 28.908c2.084-1.392 6.401-1.89 8.813-.808.504.226.818.069.695-.469-1.414-6.17-9.97-5.037-10.282.934-.029.551.315.649.774.343zM52.7 28.204c2.279-1.041 6.619-.842 8.826.612.461.304.796.2.761-.351-.407-6.319-9.036-6.565-10.297-.723-.116.54.207.691.71.462z"></path><ellipse cx="50" cy="89.5" rx="14" ry="2.5"></ellipse></g><!----></svg>