<svg data-v-423bf9ae="" xmlns="http://www.w3.org/2000/svg" viewBox="0 0 238.62637363597065 60" class="font"><!----><!----><!----><g data-v-423bf9ae="" id="24b885f8-9f41-4843-8cf8-064e04bcf6e1" fill="black" transform="matrix(5.494505456117445,0,0,5.494505456117445,-3.2967058421237,-19.780218641188775)"><path d="M5.22 14.52C7.73 14.52 8.57 13.33 8.57 10.46L8.57 5.08L9.69 5.08L9.69 4.58L6.85 4.58L6.85 5.08L7.97 5.08L7.97 10.74C7.97 12.94 7.27 13.90 5.26 13.90C3.28 13.90 2.63 12.94 2.63 10.74L2.63 5.08L3.75 5.08L3.75 4.58L0.60 4.58L0.60 5.08L1.72 5.08L1.72 10.58C1.72 13.45 2.67 14.52 5.22 14.52ZM10.93 14.35L14.01 14.35L14.01 13.85L12.91 13.85L12.91 9.21C12.91 8.15 13.85 7.62 14.80 7.62C16.04 7.62 16.66 8.33 16.66 9.80L16.66 13.85L15.55 13.85L15.55 14.35L18.63 14.35L18.63 13.85L17.53 13.85L17.53 9.72C17.53 7.92 16.80 7.01 15.09 7.01C13.87 7.01 13.17 7.67 12.94 8.30L12.88 8.30L12.88 7.04L10.93 7.36L10.93 7.74L12.04 7.90L12.04 13.85L10.93 13.85ZM21.28 5.29C21.69 5.29 21.91 5.03 21.91 4.69L21.91 4.63C21.91 4.30 21.69 4.03 21.28 4.03C20.87 4.03 20.65 4.30 20.65 4.63L20.65 4.69C20.65 5.03 20.87 5.29 21.28 5.29ZM19.74 14.35L22.82 14.35L22.82 13.85L21.71 13.85L21.71 7.04L19.74 7.36L19.74 7.74L20.85 7.90L20.85 13.85L19.74 13.85ZM27.85 14.52C29.68 14.52 30.84 13.22 30.84 10.77C30.84 8.32 29.68 7.01 27.85 7.01C26.66 7.01 25.94 7.62 25.63 8.30L25.58 8.30L25.58 3.60L23.60 3.92L23.60 4.30L24.71 4.45L24.71 14.35L25.10 14.35L25.55 13.23L25.61 13.23C25.91 13.93 26.66 14.52 27.85 14.52ZM27.62 13.92C26.59 13.92 25.58 13.30 25.58 12.31L25.58 9.23C25.58 8.23 26.59 7.62 27.62 7.62C29.06 7.62 29.89 8.65 29.89 10.26L29.89 11.27C29.89 12.88 29.06 13.92 27.62 13.92ZM35.66 13.97C34.15 13.97 33.40 12.91 33.40 11.38L33.40 10.15C33.40 8.62 34.15 7.56 35.66 7.56C37.17 7.56 37.91 8.62 37.91 10.15L37.91 11.38C37.91 12.91 37.17 13.97 35.66 13.97ZM35.66 14.52C37.63 14.52 38.89 13.12 38.89 10.77C38.89 8.41 37.63 7.01 35.66 7.01C33.68 7.01 32.42 8.41 32.42 10.77C32.42 13.12 33.68 14.52 35.66 14.52ZM42.29 14.41C42.85 14.41 43.68 14.32 44.03 14.20L44.03 13.80L42.10 13.80L42.10 7.73L44.03 7.73L44.03 7.18L42.10 7.18L42.10 5.25L41.59 5.25L41.37 6.58C41.29 7.00 41.15 7.18 40.46 7.18L40.26 7.18L40.26 7.73L41.23 7.73L41.23 13.40C41.23 14.14 41.48 14.41 42.29 14.41Z"></path></g><!----><!----></svg>